<svg id="Capa_1" data-name="Capa 1" xmlns="http://www.w3.org/2000/svg" viewBox="0 0 396.56 396.57"><defs><style>.cls-1{fill:#32bda5;}.cls-2{fill:#fefefe;}</style></defs><path class="cls-1" d="M396.56,183.85V214c-.81,5.71-.75,11.49-1.3,17.22-1.7,17.7-7.6,34.16-14.84,50.2a189.86,189.86,0,0,1-30.49,47.67c-15.68,17.82-33.59,33-54.54,44.34-17,9.19-34.7,16.34-53.63,20.36-8.18,1.73-16.51,1.7-24.78,2.38-1.25.1-2.57-.39-3.75.38H183.06c-5.8-.82-11.66-.69-17.47-1.28-17.56-1.8-34-7.62-49.9-14.82A190.38,190.38,0,0,1,68,350c-17.74-15.59-32.84-33.41-44.2-54.22C13.61,277.07,6,257.42,2.15,236.43A123.56,123.56,0,0,1,.59,219.18c-.82-18.06-1-36.15,1.06-54.12,2-17.16,7.66-33.36,14.79-49A193,193,0,0,1,47.12,68C62.73,50.26,80.54,35.15,101.35,23.8c18.56-10.12,38.08-17.66,58.93-21.57A128.05,128.05,0,0,1,177.63.62c18.19-.86,36.43-1.08,54.53,1,17.14,2,33.34,7.69,49,14.84a193.05,193.05,0,0,1,48,30.72c18.3,16.16,33.77,34.63,45.24,56.32,8.71,16.49,15.56,33.66,19.38,52,1.82,8.74,1.94,17.64,2.36,26.5C396.2,182.65,396.06,183.32,396.56,183.85Z"/><path class="cls-2" d="M231.2,127c0,11.47.12,22.94-.08,34.4-.06,3.33,1,4,4.15,4,22.81-.13,45.62-.07,68.43-.06,7,0,8.64,1.63,8.65,8.64q0,25.13,0,50.26c0,6-1.78,7.79-7.86,7.8-22.94,0-45.88.08-68.82-.06-3.49,0-4.58.86-4.55,4.48.17,22.42.09,44.85.08,67.27,0,7.09-1.51,8.6-8.59,8.61H173.89c-6.93,0-8.55-1.66-8.55-8.75,0-22.42-.07-44.85.07-67.27,0-3.32-.72-4.38-4.22-4.35-22.55.16-45.11.09-67.66.08-7.38,0-8.81-1.44-8.81-8.8q0-24.93,0-49.87c0-6.22,1.83-8,8.08-8,22.82,0,45.63-.1,68.44.09,3.55,0,4.19-1.06,4.17-4.33-.14-22.56-.08-45.11-.07-67.66,0-7.07,1.63-8.72,8.57-8.73q24.54,0,49.1,0c6.54,0,8.17,1.66,8.18,8.24Q231.22,110,231.2,127Z"/></svg>