<svg id="_2" data-name="2" xmlns="http://www.w3.org/2000/svg" viewBox="0 0 237.33 236.95"><defs><style>.cls-1{fill:#fff;}</style></defs><path class="cls-1" d="M237.67,103.36v31.41c0,9.49-6.95,17.52-15.35,17.52h-70.1V222c0,8.4-7.66,15.33-17.52,15.33H103.3c-9.86,0-17.53-6.93-17.53-15.33V152.29H15.67c-8.39,0-15.34-8-15.34-17.52V103.36c0-9.85,7-17.88,15.34-17.88h70.1V15.74C85.77,7.34,93.44.4,103.3.4h31.4c9.86,0,17.52,6.94,17.52,15.34V85.48h70.1c8.4,0,15.35,8,15.35,17.88Z" transform="translate(-0.33 -0.4)"/></svg>