<svg id="Capa_1" data-name="Capa 1" xmlns="http://www.w3.org/2000/svg" viewBox="0 0 383.6 383.64"><defs><style>.cls-1{fill:#fe3f5b;}.cls-2{fill:#fe778b;}.cls-3{fill:#fe9dac;}.cls-4{fill:#fefefe;}.cls-5{fill:#fe405b;}</style></defs><path class="cls-1" d="M0,203.31V177.12c.88-5.58.8-11.22,1.22-16.84.61-8.25,2.82-16.16,5.15-24a186.16,186.16,0,0,1,39.34-71.1c16-18,34.38-33.13,56-44.28A199.35,199.35,0,0,1,155.12,2.16c5.45-1.07,11-1.21,16.53-1.51,17.48-.92,35-1.1,52.37,1,16.4,2,32,7.26,47.1,14.15,17.12,7.82,33.06,17.58,47.06,30.16,17.64,15.84,32.85,33.7,43.88,54.91a196.87,196.87,0,0,1,19.41,55.18A130.39,130.39,0,0,1,383,173.27c.88,17.08,1,34.2-1.12,51.18-2.07,16.69-7.39,32.55-14.41,47.81a186.57,186.57,0,0,1-30.57,47.22c-15.62,17.36-33.3,32.18-54.13,43.08-16.35,8.55-33.38,15.12-51.51,18.65-8.74,1.7-17.63,1.85-26.5,2.05-2.41.22-4.86-.45-7.23.38h-9.73c-2.81-.83-5.69-.16-8.53-.38-24.47.56-47.34-5.71-69.4-15.9-24.6-11.36-45.6-27.5-63.49-47.62A187.79,187.79,0,0,1,2.18,231.23C.65,223.75.78,216.05.36,208.44.27,206.73.76,205,0,203.31Z"/><path class="cls-2" d="M178.83,383.64a1.65,1.65,0,0,0-.13-.66c3.07-.14,6.15-.55,9.11.66Z"/><path class="cls-3" d="M205.11,383c0,.21-.07.42-.09.64h-7.48A17.62,17.62,0,0,1,205.11,383Z"/><path class="cls-4" d="M121.36,210.8c0-18.08,0-36.15,0-54.23,0-2.52-.34-3.69-3.34-3.8-4.82-.18-7.25-3.19-7.31-8.15q-.07-6,0-12a19.93,19.93,0,0,1,20-19.88c7.86-.06,15.71-.1,23.56,0,2.25,0,3.12-.55,3-2.91-.17-3.48-.11-7,0-10.46.15-5.45,3-8.34,8.39-8.35q25.8-.06,51.61,0c5.39,0,8.26,2.88,8.42,8.31.11,3.49.15,7,0,10.47-.11,2.31.69,3,3,2.94,7.73-.13,15.46-.08,23.18,0,11.84.06,20.4,8.7,20.46,20.61,0,3.74,0,7.48,0,11.22-.06,5-2.48,8-7.29,8.17-3,.11-3.36,1.22-3.35,3.78q.1,52.92,0,105.83c0,14.77-7.65,25.67-20.58,29.53a30.69,30.69,0,0,1-8.85,1.2c-27.17,0-54.34,0-81.52,0-16.9,0-29.28-12.25-29.41-29.19C121.25,246.2,121.36,228.5,121.36,210.8Z"/><path class="cls-1" d="M136.31,210c0-17.7.07-35.41-.06-53.12,0-3,.62-4.06,3.86-4q51.44.16,102.87,0c3.22,0,3.88,1,3.87,4-.1,35.29,0,70.58-.07,105.87,0,10-5.47,15.36-15.57,15.36H151.9c-10.27,0-15.57-5.34-15.58-15.73Q136.29,236.23,136.31,210Z"/><path class="cls-1" d="M191.55,138c-20.45,0-40.9,0-61.34-.07-1.54,0-4.23,1.58-4.53-2-.38-4.55,1-7.47,4.17-8.08a15.54,15.54,0,0,1,3-.09q58.72,0,117.45,0c5.55,0,7,1.65,7.19,7,.08,2.78-1,3.24-3.46,3.23C233.19,137.93,212.37,138,191.55,138Z"/><path class="cls-5" d="M191.17,112.76c-5.35,0-10.72-.16-16.07.07-2.88.12-2.85-1.4-2.86-3.44s0-3.46,2.87-3.42q16.44.25,32.89,0c2.86,0,2.87,1.37,2.86,3.43s0,3.54-2.87,3.43C202.39,112.6,196.78,112.76,191.17,112.76Z"/><path class="cls-4" d="M152.7,215.67c0-13.57,0-27.15,0-40.72,0-5.08,2.75-8.25,7.06-8.44,4.76-.22,7.85,3,7.86,8.31.05,15.82,0,31.63,0,47.45q0,16.06,0,32.13c0,6.74-2.66,10.31-7.56,10.22-4.75-.09-7.39-3.68-7.4-10.09Z"/><path class="cls-4" d="M199,215.26q0,20.19,0,40.36c0,5.46-2.83,8.9-7.32,9s-7.63-3.47-7.64-9.06q0-40.17,0-80.33c0-5.5,2.84-8.74,7.5-8.73s7.4,3.25,7.45,8.79c0,.74,0,1.49,0,2.24Z"/><path class="cls-4" d="M215.44,215.25c0-13.32,0-26.65,0-40,0-5.58,2.74-8.76,7.41-8.78s7.52,3.22,7.53,8.74q0,40.35,0,80.7c0,5.28-3.19,8.79-7.67,8.68s-7.24-3.41-7.26-8.64C215.42,242.41,215.44,228.83,215.44,215.25Z"/></svg>