<svg id="Capa_1" data-name="Capa 1" xmlns="http://www.w3.org/2000/svg" viewBox="0 0 150 150"><defs><style>.cls-1{fill:#7e7e7d;}.cls-2{fill:none;}.cls-3{isolation:isolate;font-size:13.6px;font-family:ArialMT, Arial;}.cls-3,.cls-4{fill:#4a4a49;}</style></defs><rect class="cls-1" width="150" height="150"/><rect class="cls-2" x="35.27" y="106.17" width="85" height="26.89"/><text class="cls-3" transform="translate(44.61 123.53)">Snake Finder</text><path class="cls-4" d="M44.36,50.06" transform="translate(0 0)"/><path class="cls-4" d="M67.48,91.3a9.69,9.69,0,0,1-6.31-2.8A5.71,5.71,0,0,1,65,78.56c2.08-.1,4.18.47,6.27.55s5.12.7,5.58-2.28c.42-2.7-2.46-3.15-4.44-3.6A28,28,0,0,1,65.37,71c-4.21-2.23-7.11-5.59-7.28-10.74-.15-4.43,1.51-8.08,5.4-10.34s7.64-1.92,11.27.45c3,2,4.85,5,6.79,8,1.65,2.54,3.17,5.26,6,6.61,1.53.73,3.25.94,4.42-.67s.43-3.18-.77-4.46c-.69-.73-1.48-1.35-2.19-2.06-2.38-2.34-5.07-5-3.63-8.58,1.59-3.92,3.81-8,8.61-8.8,1.16-.2,2.71-.72,3.39.61s-.21,2.54-1.1,3.45c-1.48,1.51-2.73,3.31-5.08,3.72-2.73.48-2.38,2.29-1,3.88,1.22,1.42,2.8,2.49,4.15,3.8,4,3.85,4.73,8.28,2.09,12s-8.07,4.71-12.44,2a27.85,27.85,0,0,1-7.7-7.64A41.9,41.9,0,0,0,72,57c-1.55-1.52-3.56-2-5.4-.37a4.82,4.82,0,0,0-1.16,6c1.17,2.71,3.6,3.71,6.15,4.47,2.25.67,4.59,1,6.65,2.31,3.41,2.15,4.92,5.29,4.06,8.63a8.08,8.08,0,0,1-8.27,5.91c-2.46-.16-4.88-.84-7.33-1.18-1.52-.21-3.25-.17-3.66,1.72a3.19,3.19,0,0,0,2.21,3.83c1.89.77,3.66,1.85,5.49,2.79C69.77,92.93,68.59,91.59,67.48,91.3Z" transform="translate(0 0)"/><path class="cls-4" d="M110.24,90c16.23-23.74,7.46-53.12-15.08-64-15.64-7.54-35-3.59-46.95,9.63-.94,1-1.9,2-2.84,3.07a1.14,1.14,0,0,1-.74-1.14c8.82-11.83,20.66-17.43,34.7-17.16,26.4.52,45.47,25.77,40,52.55a43.92,43.92,0,0,1-8.7,18.67C109.43,91.44,109.65,90.79,110.24,90Z" transform="translate(0 0)"/><path class="cls-4" d="M44.61,37.61c.25.38.5.76.74,1.14C37,51.14,34.83,64.5,39.08,78.84c.13.92-.34,1.07-1.06.88Q30.19,56.94,44.61,37.61Z" transform="translate(0 0)"/><path class="cls-4" d="M38,79.72l1.06-.88c2.25,5.09,4.79,10,8.56,14.07,4.56,4.94,9.92,8.17,16.68,8.56.64.29,1.36.47,1.54,1.33-4,1-7.65-.08-11-1.93C46.48,96.26,41,89,38,79.72Z" transform="translate(0 0)"/><path class="cls-4" d="M65.87,102.79a2.32,2.32,0,0,1-1.54-1.33c.36-.09.71-.19,1.07-.26,2.75-.54,5.39-1.32,6-4.72s-3.82-5.17-4-5.18,2.23.57,3.29-.24c4.19,3.1,3.71,8.26-1,10.77A6.35,6.35,0,0,1,65.87,102.79Z" transform="translate(0 0)"/><path class="cls-4" d="M104.26,98.48c-.74,0-1-.31-.74-1.06.21-.23,4.62-5.06,6.65-7.3.63.93,1.62,0,.48,1.54A75.65,75.65,0,0,1,104.26,98.48Z" transform="translate(0 0)"/><path class="cls-4" d="M103.53,97.43l.74,1.06a24.47,24.47,0,0,1-8.36,5.31l-.6-.9C98,101.07,100.79,99.25,103.53,97.43Z" transform="translate(0 0)"/></svg>