<svg id="Capa_1" data-name="Capa 1" xmlns="http://www.w3.org/2000/svg" viewBox="0 0 379.43 379.44"><defs><style>.cls-1{fill:#fefefe;}.cls-2{fill:#98cb66;}.cls-3{fill:#fdfdfd;}</style></defs><path class="cls-1" d="M376.13-5.3c2.59,0,3.3.4,3.3,3.2" transform="translate(0 5.3)"/><path class="cls-2" d="M0,186.91C0,83.72,83.9,0,187.24,0c103.16,0,187,84.05,186.86,187.35S290,374.25,186.63,374.13C83.66,374,0,290.08,0,186.91Z" transform="translate(0 5.3)"/><path class="cls-3" d="M268.19,250.09c-11.6,14.77-25.39,25.23-41.84,31.93-40.71,16.57-85.53,6.56-115.36-25.63a101,101,0,0,1-22.32-39.32c-.7-2.27-.42-3.15,2.17-3.1q9.72.18,19.45,0c2.13,0,2.95.8,3.76,2.67,11.35,26.32,31.1,42.63,59.23,47.93,21,3.94,40.61-.51,58.35-12.55a10.36,10.36,0,0,1,6.22-2C247.67,250.15,257.49,250.09,268.19,250.09Z" transform="translate(0 5.3)"/><path class="cls-3" d="M106.44,123.5a85,85,0,0,1,15.83-16.21C143.89,90,168.59,82.67,196.1,84.6c40.79,2.87,77.39,32.55,89.22,72.09.95,3.17,0,3.55-2.77,3.49-6.11-.15-12.22-.16-18.32,0-2.38.06-3.37-.8-4.32-3-12.38-28.24-34-44.66-64.49-48.44-19-2.36-36.87,2.26-52.79,13.26a10.61,10.61,0,0,1-6.55,2c-8.6-.09-17.2,0-25.8-.06C109.1,124,107.83,124.4,106.44,123.5Z" transform="translate(0 5.3)"/><path class="cls-3" d="M275.68,206l-26.09-39.95h52.13Z" transform="translate(0 5.3)"/><path class="cls-3" d="M124.51,208H72.42l26-39.92Z" transform="translate(0 5.3)"/></svg>